<?xml version="1.0"?>
<svg xmlns="http://www.w3.org/2000/svg" xmlns:xlink="http://www.w3.org/1999/xlink" version="1.1" id="Capa_1" x="0px" y="0px" viewBox="0 0 55.998 55.998" style="enable-background:new 0 0 55.998 55.998;" xml:space="preserve" width="512px" height="512px" class=""><g><g>
	<g>
		<path d="M52.548,37.179c-2.79-6.09-5.921-12.704-9.855-20.813c-1.661-3.421-3.617-7.387-5.822-11.156    c-1.481-2.532-3.787-4.285-6.493-4.936c-2.658-0.639-5.431-0.152-7.809,1.369c-2.31,1.479-3.625,3.698-4.607,5.673l-2.291,4.594    c-2.579,5.165-5.245,10.506-7.795,15.797l-0.059,0.122c-1.795,3.724-3.651,7.574-5.077,11.535    c-2.177,6.05,0.681,12.669,6.647,15.397c4.564,2.088,9.283,1.491,14.028-1.778c1.285-0.884,2.466-1.92,3.716-3.018    c0.33-0.289,0.668-0.586,1.018-0.889c0.139,0.188,0.3,0.373,0.496,0.536c0.409,0.341,0.813,0.69,1.218,1.041    c1.268,1.098,2.58,2.233,4.06,3.112c2.503,1.487,5.012,2.231,7.46,2.231c2.425,0,4.789-0.73,7.025-2.191    C53.822,50.27,55.485,43.588,52.548,37.179z M47.315,52.132c-3.864,2.524-8.026,2.496-12.37-0.085    c-1.328-0.789-2.515-1.817-3.773-2.905c-0.415-0.358-0.828-0.717-1.248-1.066c-0.145-0.121-0.296-0.371-0.441-0.614    c-0.097-0.161-0.192-0.318-0.294-0.462l-0.626-0.895l-0.836,0.702c-0.68,0.571-1.312,1.124-1.916,1.655    c-1.257,1.103-2.343,2.056-3.531,2.874c-4.183,2.88-8.128,3.405-12.061,1.606c-5.013-2.293-7.419-7.839-5.597-12.901    c1.391-3.863,3.224-7.667,4.997-11.345l0.059-0.121c2.544-5.279,5.207-10.614,7.783-15.773l2.292-4.596    c0.86-1.731,1.996-3.664,3.895-4.879c1.915-1.226,4.14-1.62,6.263-1.109c2.171,0.522,4.03,1.943,5.234,4.001    c2.169,3.707,4.105,7.632,5.75,11.019c3.927,8.096,7.053,14.697,9.836,20.773C53.277,43.571,51.936,49.113,47.315,52.132z" data-original="#000000" class="active-path" data-old_color="#000000" fill="#FFFFFF"/>
		<path d="M32.193,24.856c-2.18-1.696-4.685-1.937-7.243-0.695c-1.603,0.778-3.468,2.467-3.251,6.103    c0.272,4.595,2.728,8.025,5.328,11.659l0.971,1.356l0.82-1.083c2.255-2.979,4.526-6.218,5.35-10.18    C34.6,29.937,34.865,26.933,32.193,24.856z M32.209,31.61c-0.644,3.097-2.344,5.794-4.171,8.287    c-2.188-3.081-4.125-6.076-4.344-9.753c-0.124-2.09,0.552-3.419,2.128-4.184c0.787-0.382,1.552-0.573,2.291-0.573    c1,0,1.954,0.35,2.852,1.047C32.365,27.523,32.737,29.071,32.209,31.61z" data-original="#000000" class="active-path" data-old_color="#000000" fill="#FFFFFF"/>
		<path d="M35.565,11.117l-1.601-3.263c-1.192-2.432-3.374-3.898-5.838-3.921c-2.52,0.012-4.767,1.436-6.036,3.904    c-0.382,0.742-0.774,1.478-1.167,2.214c-0.654,1.227-1.331,2.495-1.947,3.778c-4.335,9.028-8.33,17.411-12.213,25.627    c-1.142,2.416-1.184,4.959-0.123,7.355c1.01,2.279,2.813,3.98,5.076,4.791c0.934,0.334,1.906,0.5,2.884,0.5    c1.397,0,2.807-0.338,4.138-1.007c1.691-0.852,3.17-2.066,4.602-3.24c0.624-0.512,1.248-1.024,1.888-1.505    c1.671-1.252,0.75-2.683,0.391-3.24c-1.652-2.563-3.361-5.214-4.69-7.96c-1.285-2.654-1.556-5.326-0.805-7.941    c1.193-4.151,5.641-6.526,10.122-5.408c4.206,1.049,6.762,5.246,5.945,9.763c-0.56,3.099-1.906,6.1-4.365,9.729    c-0.157,0.231-0.345,0.472-0.535,0.715c-0.692,0.888-1.477,1.895-1.304,2.979v0.002c0.185,1.146,1.23,1.973,2.153,2.701    c0.206,0.163,0.409,0.323,0.594,0.481c2.325,1.991,4.967,3.84,8.527,3.887l0.074,0.001l0.073-0.01    c0.224-0.03,0.451-0.053,0.677-0.075c0.552-0.054,1.124-0.11,1.702-0.272c2.528-0.707,4.584-2.434,5.642-4.738    c1.067-2.326,1.028-4.944-0.108-7.374C44.851,30.041,40.131,20.42,35.565,11.117z M47.613,46.127    c-0.812,1.77-2.402,3.099-4.363,3.647c-0.41,0.114-0.871,0.16-1.358,0.208c-0.225,0.022-0.45,0.045-0.673,0.073    c-2.727-0.059-4.846-1.404-7.182-3.405c-0.204-0.174-0.428-0.352-0.656-0.531c-0.538-0.425-1.348-1.065-1.417-1.444    c-0.002-0.273,0.587-1.03,0.905-1.438c0.219-0.28,0.434-0.557,0.614-0.823c1.766-2.606,3.894-6.155,4.677-10.495    c1.006-5.567-2.187-10.752-7.429-12.059c-5.533-1.38-11.037,1.604-12.528,6.796c-0.878,3.059-0.558,6.297,0.927,9.364    c1.382,2.855,3.124,5.559,4.82,8.191c0.141,0.218,0.201,0.345,0.228,0.412c-0.029,0.029-0.076,0.071-0.149,0.126    c-0.663,0.497-1.31,1.027-1.957,1.559c-1.409,1.156-2.739,2.248-4.232,2.999c-1.769,0.89-3.703,1.035-5.448,0.411    c-1.743-0.624-3.136-1.944-3.921-3.719c-0.831-1.875-0.796-3.789,0.102-5.69c3.881-8.213,7.874-16.592,12.207-25.617    c0.598-1.245,1.264-2.494,1.909-3.702c0.397-0.745,0.795-1.49,1.181-2.241c0.909-1.768,2.476-2.819,4.198-2.819    c0.013,0,0.027,0,0.041,0c1.691,0.016,3.209,1.063,4.061,2.802l1.602,3.264c4.561,9.295,9.278,18.907,13.741,28.438    C48.394,42.324,48.431,44.345,47.613,46.127z" data-original="#000000" class="active-path" data-old_color="#000000" fill="#FFFFFF"/>
	</g>
</g></g> </svg>
