<?xml version="1.0"?>
<svg xmlns="http://www.w3.org/2000/svg" xmlns:xlink="http://www.w3.org/1999/xlink" version="1.1" id="Layer_1" x="0px" y="0px" viewBox="0 0 512 512" style="enable-background:new 0 0 512 512;" xml:space="preserve" width="512px" height="512px" class=""><g><path style="fill:#000000" d="M489.436,466.554c-0.052-0.851-0.212-1.672-0.498-2.471c-0.118-0.331-0.25-0.635-0.405-0.946  c-0.326-0.657-0.741-1.252-1.227-1.82c-0.219-0.256-0.401-0.524-0.647-0.754c-0.095-0.089-0.15-0.206-0.25-0.291l-59.741-51.207  V170.623C426.667,76.544,350.105,0,256,0S85.333,76.544,85.333,170.623v238.442l-59.741,51.207c-0.1,0.085-0.155,0.202-0.25,0.291  c-0.246,0.23-0.428,0.498-0.647,0.754c-0.486,0.569-0.902,1.163-1.227,1.82c-0.155,0.311-0.287,0.616-0.405,0.946  c-0.287,0.799-0.446,1.62-0.498,2.471c-0.012,0.186-0.108,0.344-0.108,0.534v35.93c0,4.965,4.022,8.982,8.982,8.982h449.123  c4.961,0,8.982-4.018,8.982-8.982v-35.93C489.544,466.898,489.447,466.74,489.436,466.554z" data-original="#314E55" class="active-path" data-old_color="#314E55"/><path style="fill:#929292" d="M103.298,170.623c0-84.175,68.5-152.658,152.702-152.658s152.702,68.482,152.702,152.658v233.588  H103.298V170.623z" data-original="#D8D8D8" class="" data-old_color="#D8D8D8"/><polygon style="fill:#EAEAEA;" points="97.64,422.175 414.36,422.175 456.281,458.105 55.719,458.105 " data-original="#EAEAEA" class=""/><rect x="40.421" y="476.07" style="fill:#929292" width="431.158" height="17.965" data-original="#D8D8D8" class="" data-old_color="#D8D8D8"/><path style="fill:#000000" d="M327.86,125.754h-44.912v-35.93c0-4.965-4.022-8.982-8.982-8.982h-35.93  c-4.961,0-8.982,4.018-8.982,8.982v35.93H184.14c-4.961,0-8.982,4.018-8.982,8.982v35.93c0,4.965,4.022,8.982,8.982,8.982h44.912  v107.789c0,4.965,4.022,8.982,8.982,8.982h35.93c4.961,0,8.982-4.018,8.982-8.982V179.649h44.912c4.961,0,8.982-4.018,8.982-8.982  v-35.93C336.842,129.772,332.82,125.754,327.86,125.754z" data-original="#314E55" class="active-path" data-old_color="#314E55"/><path style="fill:#FFFFFF" d="M318.877,161.684h-44.912c-4.961,0-8.982,4.018-8.982,8.982v107.789h-17.965V170.667  c0-4.965-4.022-8.982-8.982-8.982h-44.912v-17.965h44.912c4.961,0,8.982-4.018,8.982-8.982v-35.93h17.965v35.93  c0,4.965,4.022,8.982,8.982,8.982h44.912V161.684z" data-original="#F28544" class="" data-old_color="#F28544"/></g> </svg>
