<?xml version="1.0" encoding="iso-8859-1"?>
<!-- Generator: Adobe Illustrator 19.0.0, SVG Export Plug-In . SVG Version: 6.00 Build 0)  -->
<svg version="1.1" id="Layer_1" xmlns="http://www.w3.org/2000/svg" xmlns:xlink="http://www.w3.org/1999/xlink" x="0px" y="0px"
	 viewBox="0 0 512 512" style="enable-background:new 0 0 512 512;" xml:space="preserve">
<g transform="translate(0 1)">
	<path style="fill:#FFDD09;" d="M124.587,322.321L15.36,430.695c-8.533,8.533-8.533,23.04,0,31.573l16.213,17.067
		c8.533,8.533,23.04,8.533,31.573,0l107.52-105.813C152.747,359.015,137.387,341.948,124.587,322.321"/>
	<path style="fill:#FFFFFF;" d="M31.573,477.628c-8.533-8.533-8.533-23.04,0-31.573l104.96-104.107
		c-4.267-5.12-8.533-11.093-11.947-17.067L14.507,434.108c-8.533,8.533-8.533,23.04,0,31.573l16.213,17.067
		c3.413,2.56,7.68,4.267,11.093,5.12L31.573,477.628z"/>
	<path style="fill:#FFDD09;" d="M503.467,213.948c0-87.04-51.2-159.573-128-189.44c34.133,32.427,51.2,76.8,51.2,129.707
		c0,98.987-76.8,179.2-170.667,179.2c-39.253,0-75.947-14.507-104.96-37.547l-26.453,26.453
		c35.84,58.027,100.693,96.427,174.08,96.427C412.16,418.748,503.467,327.441,503.467,213.948"/>
	<path style="fill:#FD9808;" d="M426.667,52.668c37.547,36.693,59.733,87.893,59.733,145.92c0,113.493-91.307,204.8-204.8,204.8
		c-47.787,0-91.307-16.213-126.293-43.52c36.693,35.84,87.04,58.88,143.36,58.88c113.493,0,204.8-91.307,204.8-204.8
		C503.467,146.535,474.453,89.361,426.667,52.668"/>
	<path d="M298.667,427.281c-74.24,0-141.653-37.547-180.907-100.693c-1.707-3.413-1.707-7.68,0.853-10.24l26.453-26.453
		c3.413-3.413,7.68-3.413,11.093-0.853c29.013,23.893,63.147,35.84,98.987,35.84c89.6,0,162.133-76.8,162.133-170.667
		c0-49.493-17.067-92.16-48.64-122.88c-2.56-2.56-3.413-7.68-0.853-11.093c2.56-3.413,6.827-5.12,10.24-3.413
		C460.8,48.401,512,123.495,512,213.948C512,331.708,416.427,427.281,298.667,427.281z M135.68,323.175
		c36.693,54.613,97.28,87.04,162.987,87.04c108.373,0,196.267-87.893,196.267-196.267c0-69.12-33.28-129.707-87.893-163.84
		c18.773,29.867,28.16,64.853,28.16,104.107c0,103.253-80.213,187.733-179.2,187.733c-37.547,0-73.387-11.947-104.107-34.987
		L135.68,323.175z"/>
	<path d="M47.787,493.841c-7.68,0-16.213-3.413-22.187-9.387L8.533,468.241C3.413,463.121,0,454.588,0,446.908
		c0-7.68,3.413-16.213,9.387-22.187l110.08-109.227c1.707-1.707,4.267-2.56,6.827-2.56s5.12,1.707,5.973,4.267
		c11.947,18.773,26.453,34.987,43.52,49.493c1.707,1.707,3.413,3.413,3.413,5.973c0,2.56-0.853,5.12-2.56,6.827L69.12,485.308
		C63.147,491.281,55.467,493.841,47.787,493.841z M123.733,335.121l-102.4,101.547c-2.56,2.56-4.267,5.973-4.267,10.24
		c0,3.413,1.707,6.827,4.267,9.387l16.213,16.213c5.12,5.12,14.507,5.12,19.627,0l100.693-98.987
		C145.067,362.428,133.12,349.628,123.733,335.121z"/>
	<path d="M108.373,398.268c-3.413,3.413-8.533,3.413-11.947,0c-3.413-3.413-3.413-8.533,0-11.947c3.413-3.413,8.533-3.413,11.947,0
		C111.787,388.881,111.787,394.855,108.373,398.268"/>
	<path d="M82.773,423.868c-3.413,3.413-8.533,3.413-11.947,0c-3.413-3.413-3.413-8.533,0-11.947c3.413-3.413,8.533-3.413,11.947,0
		C86.187,414.481,86.187,420.455,82.773,423.868"/>
	<path d="M51.2,452.028c-5.12,0-8.533-3.413-8.533-8.533c0-5.12,3.413-8.533,8.533-8.533s8.533,3.413,8.533,8.533
		C59.733,447.761,56.32,452.028,51.2,452.028"/>
	<path d="M302.933,361.575c-2.56,0-4.267-0.853-5.973-2.56l-22.187-21.333c-3.413-3.413-3.413-8.533,0-11.093
		c3.413-3.413,8.533-3.413,11.947,0l22.187,21.333c3.413,3.413,3.413,8.533,0,11.093C307.2,361.575,305.493,361.575,302.933,361.575
		z"/>
	<path d="M341.333,349.628c-2.56,0-4.267-0.853-5.973-2.56l-20.48-21.333c-3.413-3.413-3.413-8.533,0-11.947
		c3.413-3.413,8.533-3.413,11.947,0l20.48,20.48c3.413,3.413,3.413,8.533,0,11.947C345.6,348.775,343.893,349.628,341.333,349.628z"
		/>
	<path d="M375.467,332.561c-2.56,0-4.267-0.853-5.973-2.56l-22.187-22.187c-3.413-3.413-3.413-8.533,0-11.947
		c3.413-3.413,8.533-3.413,11.947,0l22.187,22.187c3.413,3.413,3.413,8.533,0,11.947
		C380.587,331.708,378.027,332.561,375.467,332.561z"/>
</g>
<g>
</g>
<g>
</g>
<g>
</g>
<g>
</g>
<g>
</g>
<g>
</g>
<g>
</g>
<g>
</g>
<g>
</g>
<g>
</g>
<g>
</g>
<g>
</g>
<g>
</g>
<g>
</g>
<g>
</g>
</svg>
