<?xml version="1.0"?>
<svg xmlns="http://www.w3.org/2000/svg" xmlns:xlink="http://www.w3.org/1999/xlink" version="1.1" id="Capa_1" x="0px" y="0px" width="512px" height="512px" viewBox="0 0 235.273 235.273" style="enable-background:new 0 0 235.273 235.273;" xml:space="preserve"><g><g>
	<g>
		<ellipse cx="96.535" cy="99.596" rx="12.092" ry="14.601" data-original="#000000" class="active-path" data-old_color="#000000" fill="#535353"/>
		<ellipse cx="117.638" cy="139.623" rx="8.938" ry="11.303" data-original="#000000" class="active-path" data-old_color="#000000" fill="#535353"/>
		<path d="M229.415,51.874c-8.071-19.99-23.463-34.584-43.339-41.09c-7.198-2.355-14.739-3.551-22.413-3.551    c-15.957,0-32.041,5.191-46.026,14.746C103.651,12.424,87.567,7.232,71.61,7.232c-7.674,0-15.215,1.195-22.413,3.551    c-19.876,6.506-35.268,21.1-43.339,41.09c-7.85,19.439-7.809,41.752,0.114,62.83c15.593,41.475,96.401,104.273,105.593,111.32    c1.751,1.348,3.901,2.018,6.054,2.018c2.173,0,4.348-0.682,6.12-2.04c9.162-7.023,89.971-69.822,105.562-111.297    C237.225,93.625,237.266,71.313,229.415,51.874z M157.163,142.791c-8.278,4.145-7.896,13.097-7.896,13.097l0.014,13.785    c0,3.373-4.045,14.646-30.855,14.646c-0.271,0-0.525-0.009-0.788-0.01c-0.266,0.001-0.52,0.01-0.788,0.01    c-26.813,0-30.857-11.271-30.857-14.646l0.014-13.785c0,0,0.385-8.952-7.895-13.097c-17.352-8.686-15.163-27.64-15.163-38.817    c0-28.884,24.078-52.445,53.901-53.016c0.264,0.004,0.523,0.024,0.788,0.033c0.262-0.009,0.522-0.029,0.788-0.033    c22.938,0,40.254,18.1,40.254,18.1c8.491,9.336,13.646,21.556,13.646,34.916C172.326,115.152,174.516,134.106,157.163,142.791z" data-original="#000000" class="active-path" data-old_color="#000000" fill="#535353"/>
		<ellipse cx="138.739" cy="99.596" rx="12.091" ry="14.601" data-original="#000000" class="active-path" data-old_color="#000000" fill="#535353"/>
	</g>
</g></g> </svg>
